<svg width="12" height="9" viewBox="0 0 12 9" fill="none" xmlns="http://www.w3.org/2000/svg"><g clip-path="url(#clip0_317_117)"><path d="M12 6.88235H7.82608V7.41177H12V6.88235Z" fill="#E7E9FF" fill-opacity="0.2"></path><path d="M7.82609 5.29412H8.34783V4.76471H8.86957V4.2353H7.30435V4.76471H7.82609V5.29412Z" fill="#E7E9FF" fill-opacity="0.2"></path><path d="M7.8261 7.41177V6.88235H6.78262V7.41177H7.30436V7.94118H12V7.41177H7.8261Z" fill="#E7E9FF" fill-opacity="0.2"></path><path d="M9.91304 5.29412V3.17647H9.3913V4.7647H8.86956V5.29412H6.26086V5.82353H12V5.29412H9.91304Z" fill="#E7E9FF" fill-opacity="0.2"></path><path d="M6.26087 4.7647H4.69565V5.29411H6.26087V4.7647Z" fill="#E7E9FF" fill-opacity="0.2"></path><path d="M2.60868 4.7647H2.08694V5.29411H2.60868V4.7647Z" fill="#E7E9FF" fill-opacity="0.2"></path><path d="M1.56523 4.7647H1.04349V5.29411H1.56523V4.7647Z" fill="#E7E9FF" fill-opacity="0.2"></path><path d="M4.69566 3.17647H4.17392V4.7647H4.69566V3.17647Z" fill="#E7E9FF" fill-opacity="0.2"></path><path d="M8.86958 3.17647H6.78262V4.23529H8.86958V3.17647Z" fill="#E7E9FF" fill-opacity="0.2"></path><path d="M0.521729 2.64706V4.76471H1.04347V4.2353H1.56521V3.70589H1.04347V3.17648H2.60869V2.64706H0.521729Z" fill="#E7E9FF" fill-opacity="0.2"></path><path d="M1.04347 4.7647H0.521729V5.29411H1.04347V4.7647Z" fill="#E7E9FF" fill-opacity="0.2"></path><path d="M10.4348 3.70589H9.91306V5.29412H10.4348V3.70589Z" fill="#E7E9FF" fill-opacity="0.2"></path><path d="M0.521739 2.64706H0V4.76471H0.521739V2.64706Z" fill="#E7E9FF" fill-opacity="0.2"></path><path d="M8.34784 1.05882V0.529412H7.82611V0H3.65219V1.05882H8.34784Z" fill="#E7E9FF" fill-opacity="0.2"></path><path d="M11.4783 5.82353H6.78262V6.35294H11.4783V5.82353Z" fill="#E7E9FF" fill-opacity="0.2"></path><path d="M2.08696 5.29411H1.56522V5.82352H2.08696V5.29411Z" fill="#E7E9FF" fill-opacity="0.2"></path><path d="M4.69566 4.7647H4.17392V5.29411H4.69566V4.7647Z" fill="#E7E9FF" fill-opacity="0.2"></path><path d="M6.7826 2.11765H6.26086V2.64706H6.7826V2.11765Z" fill="#E7E9FF" fill-opacity="0.2"></path><path d="M7.30436 2.11765H6.78262V2.64706H7.30436V2.11765Z" fill="#E7E9FF" fill-opacity="0.2"></path><path d="M7.82609 2.11765H7.30435V2.64706H7.82609V2.11765Z" fill="#E7E9FF" fill-opacity="0.2"></path><path d="M8.34782 2.11765H7.82608V2.64706H8.34782V2.11765Z" fill="#E7E9FF" fill-opacity="0.2"></path><path d="M8.86955 2.11765H8.34781V2.64706H8.86955V2.11765Z" fill="#E7E9FF" fill-opacity="0.2"></path><path d="M9.39131 2.11765H8.86957V2.64706H9.39131V2.11765Z" fill="#E7E9FF" fill-opacity="0.2"></path><path d="M9.91303 2.11765H9.3913V2.64706H9.91303V2.11765Z" fill="#E7E9FF" fill-opacity="0.2"></path><path d="M9.91303 1.58823H9.3913V2.11765H9.91303V1.58823Z" fill="#E7E9FF" fill-opacity="0.2"></path><path d="M9.39131 1.58823H8.86957V2.11765H9.39131V1.58823Z" fill="#E7E9FF" fill-opacity="0.2"></path><path d="M8.86955 1.58823H8.34781V2.11765H8.86955V1.58823Z" fill="#E7E9FF" fill-opacity="0.2"></path><path d="M8.86955 1.05882H8.34781V1.58823H8.86955V1.05882Z" fill="#E7E9FF" fill-opacity="0.2"></path><path d="M8.34782 1.58823H7.82608V2.11765H8.34782V1.58823Z" fill="#E7E9FF" fill-opacity="0.2"></path><path d="M7.82609 1.58823H7.30435V2.11765H7.82609V1.58823Z" fill="#E7E9FF" fill-opacity="0.2"></path><path d="M10.4348 1.58823H9.91306V2.11765H10.4348V1.58823Z" fill="#E7E9FF" fill-opacity="0.2"></path><path d="M5.73912 2.11765H5.21738V2.64706H5.73912V2.11765Z" fill="#E7E9FF" fill-opacity="0.2"></path><path d="M6.26087 2.11765H5.73914V2.64706H6.26087V2.11765Z" fill="#E7E9FF" fill-opacity="0.2"></path><path d="M6.26087 1.58823H5.73914V2.11765H6.26087V1.58823Z" fill="#E7E9FF" fill-opacity="0.2"></path><path d="M6.7826 1.58823H6.26086V2.11765H6.7826V1.58823Z" fill="#E7E9FF" fill-opacity="0.2"></path><path d="M5.73912 1.58823H5.21738V2.11765H5.73912V1.58823Z" fill="#E7E9FF" fill-opacity="0.2"></path><path d="M5.21739 1.58823H4.69565V2.11765H5.21739V1.58823Z" fill="#E7E9FF" fill-opacity="0.2"></path><path d="M4.69566 1.58823H4.17392V2.11765H4.69566V1.58823Z" fill="#E7E9FF" fill-opacity="0.2"></path><path d="M4.69566 2.11765H4.17392V2.64706H4.69566V2.11765Z" fill="#E7E9FF" fill-opacity="0.2"></path><path d="M4.69566 2.64706H4.17392V3.17648H4.69566V2.64706Z" fill="#E7E9FF" fill-opacity="0.2"></path><path d="M5.21739 2.64706H4.69565V3.17648H5.21739V2.64706Z" fill="#E7E9FF" fill-opacity="0.2"></path><path d="M5.73912 2.64706H5.21738V3.17648H5.73912V2.64706Z" fill="#E7E9FF" fill-opacity="0.2"></path><path d="M6.26087 2.64706H5.73914V3.17648H6.26087V2.64706Z" fill="#E7E9FF" fill-opacity="0.2"></path><path d="M6.7826 2.64706H6.26086V3.17648H6.7826V2.64706Z" fill="#E7E9FF" fill-opacity="0.2"></path><path d="M7.30436 2.64706H6.78262V3.17648H7.30436V2.64706Z" fill="#E7E9FF" fill-opacity="0.2"></path><path d="M8.34782 2.64706H7.82608V3.17648H8.34782V2.64706Z" fill="#E7E9FF" fill-opacity="0.2"></path><path d="M8.86955 2.64706H8.34781V3.17648H8.86955V2.64706Z" fill="#E7E9FF" fill-opacity="0.2"></path><path d="M9.39131 2.64706H8.86957V3.17648H9.39131V2.64706Z" fill="#E7E9FF" fill-opacity="0.2"></path><path d="M7.82609 2.64706H7.30435V3.17648H7.82609V2.64706Z" fill="#E7E9FF" fill-opacity="0.2"></path><path d="M6.7826 3.17647H6.26086V3.70588H6.7826V3.17647Z" fill="#E7E9FF" fill-opacity="0.2"></path><path d="M3.65217 1.58823H3.13043V2.11765H3.65217V1.58823Z" fill="#E7E9FF" fill-opacity="0.2"></path><path d="M5.21739 2.11765H4.69565V2.64706H5.21739V2.11765Z" fill="#E7E9FF" fill-opacity="0.2"></path><path d="M7.30436 1.58823H6.78262V2.11765H7.30436V1.58823Z" fill="#E7E9FF" fill-opacity="0.2"></path><path d="M2.08696 4.7647H1.56522V5.29411H2.08696V4.7647Z" fill="#E7E9FF" fill-opacity="0.2"></path><path d="M1.56521 5.82352H1.04347V5.29411H0.521729V6.35294H1.56521V5.82352Z" fill="#E7E9FF" fill-opacity="0.2"></path><path d="M2.08696 7.41177H3.13043V9H5.21739H5.73913H6.26087H6.78261H7.30435H7.82609H8.34783H8.86956V7.94118H4.17391V7.41177H3.65217V6.88235H3.13043V5.29412H3.65217V2.11765H3.13043V1.05882H3.65217V0H2.08696V1.05882H1.56522V2.64706H2.60869V5.29412H2.08696V6.35294H1.56522V6.88235H2.08696V7.41177Z" fill="#E7E9FF" fill-opacity="0.2"></path><path d="M5.21739 3.17647H4.69565V3.70588H5.21739V3.17647Z" fill="#E7E9FF" fill-opacity="0.2"></path><path d="M5.21739 3.70589H4.69565V4.2353H5.21739V3.70589Z" fill="#E7E9FF" fill-opacity="0.2"></path><path d="M5.21739 4.2353H4.69565V4.76471H5.21739V4.2353Z" fill="#E7E9FF" fill-opacity="0.2"></path><path d="M6.26087 3.17647H5.73914V3.70588H6.26087V3.17647Z" fill="#E7E9FF" fill-opacity="0.2"></path><path d="M6.26087 3.70589H5.73914V4.2353H6.26087V3.70589Z" fill="#E7E9FF" fill-opacity="0.2"></path><path d="M6.26087 4.2353H5.73914V4.76471H6.26087V4.2353Z" fill="#E7E9FF" fill-opacity="0.2"></path><path d="M6.7826 6.88235H6.26086V7.41177H6.7826V6.88235Z" fill="#E7E9FF" fill-opacity="0.2"></path><path d="M6.26087 6.88235H5.73914V7.41177H6.26087V6.88235Z" fill="#E7E9FF" fill-opacity="0.2"></path><path d="M5.73912 6.88235H5.21738V7.41177H5.73912V6.88235Z" fill="#E7E9FF" fill-opacity="0.2"></path><path d="M5.21739 6.88235H4.69565V7.41177H5.21739V6.88235Z" fill="#E7E9FF" fill-opacity="0.2"></path><path d="M4.69566 6.88235H4.17392V7.41177H4.69566V6.88235Z" fill="#E7E9FF" fill-opacity="0.2"></path><path d="M4.69566 6.35294H4.17392V6.88235H4.69566V6.35294Z" fill="#E7E9FF" fill-opacity="0.2"></path><path d="M4.17393 6.35294H3.65219V6.88235H4.17393V6.35294Z" fill="#E7E9FF" fill-opacity="0.2"></path><path d="M4.17393 5.82353H3.65219V6.35294H4.17393V5.82353Z" fill="#E7E9FF" fill-opacity="0.2"></path><path d="M4.17393 5.29411H3.65219V5.82352H4.17393V5.29411Z" fill="#E7E9FF" fill-opacity="0.2"></path><path d="M4.69566 5.29411H4.17392V5.82352H4.69566V5.29411Z" fill="#E7E9FF" fill-opacity="0.2"></path><path d="M5.21739 5.29411H4.69565V5.82352H5.21739V5.29411Z" fill="#E7E9FF" fill-opacity="0.2"></path><path d="M5.73912 5.29411H5.21738V5.82352H5.73912V5.29411Z" fill="#E7E9FF" fill-opacity="0.2"></path><path d="M6.26087 5.29411H5.73914V5.82352H6.26087V5.29411Z" fill="#E7E9FF" fill-opacity="0.2"></path><path d="M5.21739 5.82353H4.69565V6.35294H5.21739V5.82353Z" fill="#E7E9FF" fill-opacity="0.2"></path><path d="M5.73912 5.82353H5.21738V6.35294H5.73912V5.82353Z" fill="#E7E9FF" fill-opacity="0.2"></path><path d="M6.26087 5.82353H5.73914V6.35294H6.26087V5.82353Z" fill="#E7E9FF" fill-opacity="0.2"></path><path d="M5.21739 6.35294H4.69565V6.88235H5.21739V6.35294Z" fill="#E7E9FF" fill-opacity="0.2"></path><path d="M5.73912 6.35294H5.21738V6.88235H5.73912V6.35294Z" fill="#E7E9FF" fill-opacity="0.2"></path><path d="M6.26087 6.35294H5.73914V6.88235H6.26087V6.35294Z" fill="#E7E9FF" fill-opacity="0.2"></path><path d="M4.69566 5.82353H4.17392V6.35294H4.69566V5.82353Z" fill="#E7E9FF" fill-opacity="0.2"></path></g><defs><clipPath id="clip0_317_117"><rect width="12" height="9" fill="white"></rect></clipPath></defs></svg>