<svg width="12" height="9" viewBox="0 0 12 9" fill="none" xmlns="http://www.w3.org/2000/svg"><path d="M11.2 8.18182H8V9H11.2V8.18182Z" fill="#E7E9FF" fill-opacity="0.2"></path><path d="M3.99999 8.18182H0.799988V9H3.99999V8.18182Z" fill="#E7E9FF" fill-opacity="0.2"></path><path d="M12 5.72727H11.2V8.18182H12V5.72727Z" fill="#E7E9FF" fill-opacity="0.2"></path><path d="M8.00001 5.72727H7.20001V8.18182H8.00001V5.72727Z" fill="#E7E9FF" fill-opacity="0.2"></path><path d="M0.8 5.72727H0V8.18182H0.8V5.72727Z" fill="#E7E9FF" fill-opacity="0.2"></path><path d="M9.59999 5.72727H8.79999V6.54545H9.59999V5.72727Z" fill="#E7E9FF" fill-opacity="0.2"></path><path d="M4.8 5.72727H4V8.18182H4.8V5.72727Z" fill="#E7E9FF" fill-opacity="0.2"></path><path d="M2.40001 5.72727H1.60001V6.54545H2.40001V5.72727Z" fill="#E7E9FF" fill-opacity="0.2"></path><path d="M7.19999 4.90909H4.79999V5.72727H7.19999V4.90909Z" fill="#E7E9FF" fill-opacity="0.2"></path><path d="M12 4.09091H7.20001V4.90909H12V4.09091Z" fill="#E7E9FF" fill-opacity="0.2"></path><path d="M4.8 4.09091H0V4.90909H4.8V4.09091Z" fill="#E7E9FF" fill-opacity="0.2"></path><path d="M12 1.63636H11.2V3.27273H12V1.63636Z" fill="#E7E9FF" fill-opacity="0.2"></path><path d="M0.8 1.63636H0V3.27273H0.8V1.63636Z" fill="#E7E9FF" fill-opacity="0.2"></path><path d="M11.2 0.818182H10.4V1.63636H11.2V0.818182Z" fill="#E7E9FF" fill-opacity="0.2"></path><path d="M1.59999 0.818182H0.799988V1.63636H1.59999V0.818182Z" fill="#E7E9FF" fill-opacity="0.2"></path><path d="M10.4 0H8.79999V0.818182H10.4V0Z" fill="#E7E9FF" fill-opacity="0.2"></path><path d="M3.20001 0H1.60001V0.818182H3.20001V0Z" fill="#E7E9FF" fill-opacity="0.2"></path></svg>