<svg width="10" height="10" viewBox="0 0 10 10" fill="none" xmlns="http://www.w3.org/2000/svg"><g clip-path="url(#clip0_317_120)"><path d="M2.50002 9.16666H1.66669V9.99999H2.50002V9.16666Z" fill="#E7E9FF" fill-opacity="0.2"></path><path d="M1.66665 8.33334H0.833313V9.16668H1.66665V8.33334Z" fill="#E7E9FF" fill-opacity="0.2"></path><path d="M0.833333 1.66666H0V8.33332H0.833333V1.66666Z" fill="#E7E9FF" fill-opacity="0.2"></path><path d="M1.66669 1.66667V8.33333H2.50002V9.16667H3.33335V10H8.33335V9.16667H9.16669V8.33333H10V1.66667H9.16669V0.833333H8.33335V0H3.33335V0.833333H2.50002V1.66667H1.66669ZM5.00002 2.5V1.66667H5.83335V2.5H5.00002V7.5H6.66669V3.33333H7.50002V7.5H6.66669V8.33333H5.00002V7.5H4.16669V2.5H5.00002Z" fill="#E7E9FF" fill-opacity="0.2"></path><path d="M1.66665 0.833344H0.833313V1.66668H1.66665V0.833344Z" fill="#E7E9FF" fill-opacity="0.2"></path><path d="M2.50002 0H1.66669V0.833333H2.50002V0Z" fill="#E7E9FF" fill-opacity="0.2"></path></g><defs><clipPath id="clip0_317_120"><rect width="10" height="10" fill="white"></rect></clipPath></defs></svg>