<svg width="9" height="10" viewBox="0 0 9 10" fill="none" xmlns="http://www.w3.org/2000/svg"><path d="M6.6 5.625V5H7.2V0H1.8V5H1.2V5.625H0.6V6.25H0V10H0.6V6.875H4.8V7.5H1.2V10H5.4V6.25H6V5.625H6.6ZM2.4 0.625H6.6V4.375H2.4V0.625Z" fill="#E7E9FF" fill-opacity="0.2"></path><path d="M5.99999 2.5H5.39999V3.75H5.99999V2.5Z" fill="#E7E9FF" fill-opacity="0.2"></path><path d="M4.80001 1.875H4.20001V2.5H4.80001V1.875Z" fill="#E7E9FF" fill-opacity="0.2"></path><path d="M3.6 1.25H3V2.5H3.6V1.25Z" fill="#E7E9FF" fill-opacity="0.2"></path><path d="M7.8 0V5H7.2V5.625H6.6V6.25H6V10H9V0H7.8Z" fill="#E7E9FF" fill-opacity="0.2"></path></svg>