<svg width="13" height="8" viewBox="0 0 13 8" fill="none" xmlns="http://www.w3.org/2000/svg"><path d="M8.125 7.2H7.3125V8H8.125V7.2Z" fill="#E7E9FF" fill-opacity="0.2"></path><path d="M2.4375 7.2H1.625V8H2.4375V7.2Z" fill="#E7E9FF" fill-opacity="0.2"></path><path d="M1.625 6.4H0.8125V7.2H1.625V6.4Z" fill="#E7E9FF" fill-opacity="0.2"></path><path d="M0.8125 1.6H0V6.4H0.8125V1.6Z" fill="#E7E9FF" fill-opacity="0.2"></path><path d="M12.1875 0.8H11.375V0H3.25V0.8H2.4375V1.6H1.625V6.4H2.4375V7.2H3.25V8H5.6875V7.2H7.3125V6.4H8.125V7.2H8.9375V8H11.375V7.2H12.1875V6.4H13V1.6H12.1875V0.8ZM11.375 3.2H10.5625V2.4H11.375V3.2ZM11.375 4.8H10.5625V4H11.375V4.8ZM3.25 3.2H4.0625V2.4H4.875V3.2H5.6875V4H4.875V4.8H4.0625V4H3.25V3.2ZM9.75 3.2H8.9375V2.4H9.75V3.2ZM9.75 4.8H8.9375V4H9.75V4.8ZM6.5 4H8.125V4.8H6.5V4Z" fill="#E7E9FF" fill-opacity="0.2"></path><path d="M1.625 0.799999H0.8125V1.6H1.625V0.799999Z" fill="#E7E9FF" fill-opacity="0.2"></path><path d="M2.4375 0H1.625V0.8H2.4375V0Z" fill="#E7E9FF" fill-opacity="0.2"></path></svg>