<svg width="11" height="11" viewBox="0 0 11 11" fill="none" xmlns="http://www.w3.org/2000/svg"><g clip-path="url(#clip0_317_119)"><path d="M0.785714 9.42857H1.57143V10.2143H2.35714V11H8.64286V10.2143H9.42857V9.42857H10.2143V8.64286H11V3.92857H10.2143V5.5H9.42857V6.28572H7.07143V5.5H6.28571V3.92857H4.71429V5.5H3.92857V6.28572H1.57143V5.5H0.785714V3.92857H0V8.64286H0.785714V9.42857ZM7.07143 7.85715H6.28571V8.64286H4.71429V7.85715H6.28571V7.07143H7.07143V7.85715Z" fill="#E7E9FF" fill-opacity="0.2"></path><path d="M7.85716 3.92857H7.07144V4.71429H7.85716V3.92857Z" fill="#E7E9FF" fill-opacity="0.2"></path><path d="M2.35716 3.92857H1.57144V4.71429H2.35716V3.92857Z" fill="#E7E9FF" fill-opacity="0.2"></path><path d="M11 3.14286V2.35714H10.2143V1.57143H9.42857V0.785714H8.64286V0H2.35714V0.785714H1.57143V1.57143H0.785714V2.35714H0V3.14286H11Z" fill="#E7E9FF" fill-opacity="0.2"></path></g><defs><clipPath id="clip0_317_119"><rect width="11" height="11" fill="white"></rect></clipPath></defs></svg>